<?xml version="1.0" ?>
<svg viewBox="0 0 512 512" xmlns="http://www.w3.org/2000/svg">
    <defs>
        <style>
            .cls-1{fill:#f9b7b7;}.cls-2{fill:#0071af;}.cls-3{fill:#575757;}.cls-4{fill:#6e6e6e;}.cls-5{fill:#00659d;}.cls-6{fill:#00b378;}.cls-7{fill:#00a16c;}.cls-8{fill:#bebebe;}.cls-9{fill:#096;}.cls-10{fill:#006095;}.cls-11{fill:#d49c9c;}.cls-12{fill:#4a4a4a;}.cls-13{fill:#00895c;}.cls-14{fill:#005686;}
        </style>
    </defs>
    <title/>
    <g data-name="/ FILLED_OUTLINE" id="_FILLED_OUTLINE">
        <path class="cls-1"
              d="M464.79108,145.3689,432,136V123.31372A27.31358,27.31358,0,0,1,440,104a27.314,27.314,0,0,0,8-19.31372V56a32,32,0,0,0-31.99994-32h-.00012A32,32,0,0,0,384,56V84.68628A27.314,27.314,0,0,0,392,104a27.31358,27.31358,0,0,1,8,19.31372V136l-32.79108,9.3689A32,32,0,0,0,344,176.1377V272a16,16,0,0,0,32,0v8h80v-8a16,16,0,0,0,32,0V176.1377A32,32,0,0,0,464.79108,145.3689Z"/>
        <path class="cls-1"
              d="M464.79108,145.3689,432,136V123.31372A27.31358,27.31358,0,0,1,440,104a27.314,27.314,0,0,0,8-19.31372V56a32,32,0,0,0-31.99994-32h-.00012A32,32,0,0,0,384,56V84.68628A27.314,27.314,0,0,0,392,104a27.31358,27.31358,0,0,1,8,19.31372V136l-32.79108,9.3689A32,32,0,0,0,344,176.1377V272a16,16,0,0,0,32,0v8h80v-8a16,16,0,0,0,32,0V176.1377A32,32,0,0,0,464.79108,145.3689Z"/>
        <path class="cls-2"
              d="M400,136l-32.79108,9.3689A32,32,0,0,0,344,176.1377V224h32v56h80V224h32V176.1377a32,32,0,0,0-23.20892-30.7688L432,136A35.777,35.777,0,0,1,400,136Z"/>
        <rect class="cls-3" height="176" width="80" x="376" y="280"/>
        <rect class="cls-4" height="128" width="16" x="408" y="328"/>
        <path class="cls-5"
              d="M368,456a15.99993,15.99993,0,0,0-16,16h0a16.00008,16.00008,0,0,0,16,16h32a16.00008,16.00008,0,0,0,16-16V456Z"/>
        <path class="cls-5"
              d="M464,456H416v16a16.00008,16.00008,0,0,0,16,16h32a16.00008,16.00008,0,0,0,16-16h0A15.99993,15.99993,0,0,0,464,456Z"/>
        <path class="cls-1"
              d="M144.79108,145.3689,112,136V123.31372A27.31358,27.31358,0,0,1,120,104a27.314,27.314,0,0,0,8-19.31372V56A32,32,0,0,0,96.00006,24h-.00012A32,32,0,0,0,64,56V84.68628A27.314,27.314,0,0,0,72,104a27.31358,27.31358,0,0,1,8,19.31372V136l-32.79108,9.3689A32,32,0,0,0,24,176.1377V272a16,16,0,0,0,32,0v8h80v-8a16,16,0,0,0,32,0V176.1377A32,32,0,0,0,144.79108,145.3689Z"/>
        <path class="cls-1"
              d="M144.79108,145.3689,112,136V123.31372A27.31358,27.31358,0,0,1,120,104a27.314,27.314,0,0,0,8-19.31372V56A32,32,0,0,0,96.00006,24h-.00012A32,32,0,0,0,64,56V84.68628A27.314,27.314,0,0,0,72,104a27.31358,27.31358,0,0,1,8,19.31372V136l-32.79108,9.3689A32,32,0,0,0,24,176.1377V272a16,16,0,0,0,32,0v8h80v-8a16,16,0,0,0,32,0V176.1377A32,32,0,0,0,144.79108,145.3689Z"/>
        <path class="cls-6"
              d="M80,136l-32.79108,9.3689A32,32,0,0,0,24,176.1377V224H56v56h80V224h32V176.1377a32,32,0,0,0-23.20892-30.7688L112,136A35.777,35.777,0,0,1,80,136Z"/>
        <rect class="cls-3" height="176" width="80" x="56" y="280"/>
        <rect class="cls-4" height="128" width="16" x="88" y="328"/>
        <path class="cls-7"
              d="M48,456a15.99993,15.99993,0,0,0-16,16h0a16.00008,16.00008,0,0,0,16,16H80a16.00008,16.00008,0,0,0,16-16V456Z"/>
        <path class="cls-7"
              d="M144,456H96v16a16.00008,16.00008,0,0,0,16,16h32a16.00008,16.00008,0,0,0,16-16h0A15.99993,15.99993,0,0,0,144,456Z"/>
        <polygon class="cls-8"
                 points="336 344 336 360 176 360 176 344 160 344 160 392 176 392 176 376 336 376 336 392 352 392 352 344 336 344"/>
        <path class="cls-8"
              d="M248,232h40V216H248l.00049-3.46973,28.67578-17.20605a23.3241,23.3241,0,0,0-12-43.32422h-9.35254A23.35013,23.35013,0,0,0,232,175.32422V184h16v-8.67578A7.33211,7.33211,0,0,1,255.32373,168h9.35254a7.32339,7.32339,0,0,1,3.76758,13.60352l-28.67432,17.20605A16.07851,16.07851,0,0,0,232,212.5293V216A16.01833,16.01833,0,0,0,248,232Z"/>
        <path class="cls-8"
              d="M224,278.94824V304h16V284.94434l16-8V304h16V284.94434l16-8V304h16V276.94434a15.99913,15.99913,0,0,0-23.15527-14.31055L269.48779,268.312a16.03814,16.03814,0,0,0-20.64306-5.67822l-12.43415,6.2168a15.99749,15.99749,0,0,0-21.28558-3.21485l-3.56251,2.375,8.875,13.3125Z"/>
        <rect class="cls-5" height="32" width="16" x="368" y="192"/>
        <rect class="cls-7" height="32" width="16" x="48" y="192"/>
        <path class="cls-9" d="M56,276.426V280h80V226.50146A143.99056,143.99056,0,0,1,56,276.426Z"/>
        <path class="cls-9"
              d="M165.3764,163.44507A143.34361,143.34361,0,0,1,137.97974,224H168V176.1377A31.932,31.932,0,0,0,165.3764,163.44507Z"/>
        <rect class="cls-7" height="32" width="16" x="128" y="192"/>
        <path class="cls-10" d="M376,276.426V280h80V226.50146A143.99056,143.99056,0,0,1,376,276.426Z"/>
        <path class="cls-10"
              d="M485.3764,163.44507A143.34361,143.34361,0,0,1,457.97974,224H488V176.1377A31.932,31.932,0,0,0,485.3764,163.44507Z"/>
        <rect class="cls-5" height="32" width="16" x="448" y="192"/>
        <path class="cls-11" d="M24.00006,224A32,32,0,0,1,56,256V224Z"/>
        <path class="cls-11" d="M136.00006,224v32A32,32,0,0,1,168,224Z"/>
        <path class="cls-12" d="M56,280v80a79.99992,79.99992,0,0,1,79.99994-80Z"/>
        <path class="cls-13"
              d="M158.58282,465.44019A32.0129,32.0129,0,0,1,128.00006,488H144a15.98057,15.98057,0,0,0,14.58282-22.55981Z"/>
        <path class="cls-13" d="M64.00006,488H80a16.00008,16.00008,0,0,0,16-16V456A32,32,0,0,1,64.00006,488Z"/>
        <path class="cls-12" d="M376.00006,280v80A79.99992,79.99992,0,0,1,456,280Z"/>
        <path class="cls-14"
              d="M478.58276,465.44019A32.01291,32.01291,0,0,1,448,488h15.99994a15.98057,15.98057,0,0,0,14.58282-22.55981Z"/>
        <path class="cls-14" d="M384,488h15.99994a16.00008,16.00008,0,0,0,16-16V456A32,32,0,0,1,384,488Z"/>
        <path class="cls-11" d="M376,256V224H344.00006A32,32,0,0,1,376,256Z"/>
        <path class="cls-11" d="M456.00006,224v32A32,32,0,0,1,488,224Z"/>
        <path d="M466.98877,137.67676,440,129.96582v-6.65234a19.18424,19.18424,0,0,1,5.65674-13.65625A35.08124,35.08124,0,0,0,456,84.68652V56a40,40,0,0,0-80,0V84.68652a35.08124,35.08124,0,0,0,10.34326,24.97071A19.18424,19.18424,0,0,1,392,123.31348v6.65234l-26.98877,7.71094A40.16926,40.16926,0,0,0,336,176.1377V272a23.99123,23.99123,0,0,0,32,22.62378V448a24,24,0,0,0,0,48h32a23.90111,23.90111,0,0,0,16-6.13086A23.90111,23.90111,0,0,0,432,496h32a24,24,0,0,0,0-48V294.62378A23.99123,23.99123,0,0,0,496,272V176.1377A40.16926,40.16926,0,0,0,466.98877,137.67676ZM392,56a24,24,0,0,1,48,0V84.68652a19.18424,19.18424,0,0,1-5.65674,13.65625A35.08124,35.08124,0,0,0,424,123.31348v7.27832a28.0101,28.0101,0,0,1-16,0v-7.27832a35.08124,35.08124,0,0,0-10.34326-24.97071A19.18424,19.18424,0,0,1,392,84.68652ZM360,280a8.00917,8.00917,0,0,1-8-8V232h16v40A8.00917,8.00917,0,0,1,360,280Zm48,192a8.00917,8.00917,0,0,1-8,8H368a8,8,0,0,1,0-16h40Zm0-144V448H384V288h64V448H424V328Zm64,144a8.00917,8.00917,0,0,1-8,8H432a8.00917,8.00917,0,0,1-8-8v-8h40A8.00917,8.00917,0,0,1,472,472Zm8-200a8,8,0,0,1-16,0V232h16Zm0-56H464V192H448v80H384V192H368v24H352V176.1377a24.10045,24.10045,0,0,1,17.40674-23.07618l29.99652-8.571a43.8467,43.8467,0,0,0,33.19348,0l29.99652,8.571A24.10045,24.10045,0,0,1,480,176.1377Z"/>
        <path d="M144,448V294.62378A23.99123,23.99123,0,0,0,176,272V176.1377a40.16926,40.16926,0,0,0-29.01123-38.46094L120,129.96582v-6.65234a19.18424,19.18424,0,0,1,5.65674-13.65625A35.08124,35.08124,0,0,0,136,84.68652V56a40,40,0,0,0-80,0V84.68652a35.08124,35.08124,0,0,0,10.34326,24.97071A19.18424,19.18424,0,0,1,72,123.31348v6.65234l-26.98877,7.71094A40.16926,40.16926,0,0,0,16,176.1377V272a23.99123,23.99123,0,0,0,32,22.62378V448a24,24,0,0,0,0,48H80a23.90111,23.90111,0,0,0,16-6.13086A23.90111,23.90111,0,0,0,112,496h32a24,24,0,0,0,0-48Zm16-176a8,8,0,0,1-16,0V232h16ZM72,56a24,24,0,0,1,48,0V84.68652a19.18424,19.18424,0,0,1-5.65674,13.65625A35.08124,35.08124,0,0,0,104,123.31348v7.27832a28.0101,28.0101,0,0,1-16,0v-7.27832A35.08124,35.08124,0,0,0,77.65674,98.34277,19.18424,19.18424,0,0,1,72,84.68652ZM32,176.1377a24.10045,24.10045,0,0,1,17.40674-23.07618l29.99652-8.571a43.8467,43.8467,0,0,0,33.19348,0l29.99652,8.571A24.10045,24.10045,0,0,1,160,176.1377V216H144V192H128v80H64V192H48v24H32ZM40,280a8.00917,8.00917,0,0,1-8-8V232H48v40A8.00917,8.00917,0,0,1,40,280ZM88,472a8.00917,8.00917,0,0,1-8,8H48a8,8,0,0,1,0-16H88Zm0-144V448H64V288h64V448H104V328Zm56,152H112a8.00917,8.00917,0,0,1-8-8v-8h40a8,8,0,0,1,0,16Z"/>
        <polygon
                points="352 392 352 344 336 344 336 360 176 360 176 344 160 344 160 392 176 392 176 376 336 376 336 392 352 392"/>
        <path d="M248,232h40V216H248l.00049-3.46973,28.67578-17.20605a23.3241,23.3241,0,0,0-12-43.32422h-9.35254A23.35013,23.35013,0,0,0,232,175.32422V184h16v-8.67578A7.33211,7.33211,0,0,1,255.32373,168h9.35254a7.32339,7.32339,0,0,1,3.76758,13.60352l-28.67432,17.20605A16.07851,16.07851,0,0,0,232,212.5293V216A16.01833,16.01833,0,0,0,248,232Z"/>
        <path d="M224,278.94824V304h16V284.94434l16-8V304h16V284.94434l16-8V304h16V276.94434a15.99913,15.99913,0,0,0-23.15527-14.31055L269.48779,268.312a16.03814,16.03814,0,0,0-20.64306-5.67822l-12.43415,6.2168a15.99749,15.99749,0,0,0-21.28558-3.21485l-3.5625,2.375,8.875,13.3125Z"/>
    </g>
</svg>
